<svg width="81" height="20" viewBox="0 0 81 20" fill="none" xmlns="http://www.w3.org/2000/svg">
<path d="M13.6543 5.5779H9.48456L5.87616 10.7366H3.92495V0.633057H0.450195V19.3433H3.92495V14.2113H5.87616L9.48456 19.3433H13.6543L8.92325 12.474L13.6543 5.5779Z" fill="#4264FB"/>
<path d="M20.9797 19.3433C25.3097 19.3433 27.6351 16.3764 27.6351 12.4472C27.6351 8.51808 25.3097 5.5779 20.9797 5.5779C16.6496 5.5779 14.3242 8.51808 14.3242 12.4472C14.3242 16.3764 16.6496 19.3433 20.9797 19.3433ZM20.9797 15.8685C18.6275 15.8685 17.7989 15.1201 17.7989 12.4472C17.7989 9.77434 18.6275 9.05266 20.9797 9.05266C23.3318 9.05266 24.1604 9.77434 24.1604 12.4472C24.1604 15.1201 23.3318 15.8685 20.9797 15.8685Z" fill="#4264FB"/>
<path d="M42.4563 5.5779H33.3685V0.633057H29.8937V19.3433H33.3685V9.05266H38.9816V19.3433H42.4563V5.5779Z" fill="#4264FB"/>
<path d="M51.5195 19.3433C55.8496 19.3433 58.175 16.3764 58.175 12.4472C58.175 8.51808 55.8496 5.5779 51.5195 5.5779C47.1894 5.5779 44.864 8.51808 44.864 12.4472C44.864 16.3764 47.1894 19.3433 51.5195 19.3433ZM51.5195 15.8685C49.1674 15.8685 48.3388 15.1201 48.3388 12.4472C48.3388 9.77434 49.1674 9.05266 51.5195 9.05266C53.8717 9.05266 54.7002 9.77434 54.7002 12.4472C54.7002 15.1201 53.8717 15.8685 51.5195 15.8685Z" fill="#4264FB"/>
<path d="M69.034 5.5779H60.4273V19.3433H63.9021V9.05266H69.034V5.5779Z" fill="#4264FB"/>
<path d="M80.4502 9.05266V5.5779H76.7883V0.633057H73.3136V5.5779H71.1753V9.05266H73.3136V19.3433H80.4502V15.8685H76.7883V9.05266H80.4502Z" fill="#4264FB"/>
</svg>
