<svg width="1096" height="708" viewBox="0 0 1096 708" fill="none" xmlns="http://www.w3.org/2000/svg">
<path d="M599.501 20L913.435 500H285.567L599.501 20Z" fill="#C7D3FF"/>
<path d="M343.5 106L657.434 586H29.5658L343.5 106Z" fill="#4264FB"/>
<path d="M443.842 253.554C444.709 254.085 445.543 254.552 446.531 253.836C446.794 253.623 447.363 254.004 447.756 253.887C448.89 253.61 450.168 253.927 451.28 253.148C451.729 252.849 452.535 252.964 453.221 253.432C453.992 253.932 455.098 254.189 456.022 254.244C456.71 254.272 457.214 254.979 457.994 254.44C458.171 254.35 458.801 255.147 459.333 255.32C460.173 255.637 460.826 255.756 461.603 256.552C462.41 257.406 463.872 257.485 464.823 257.153C466.794 257.642 467.327 259.895 469.447 259.942C469.6 259.939 469.895 260.23 469.927 260.441C470.22 261.774 471.234 262.304 472.311 262.649C472.996 264.306 473.379 265.966 474.836 267.081C475.074 267.261 475.316 267.58 475.253 267.764C475.101 268.654 475.729 269.299 475.91 270.101C476.114 271.259 476.47 272.26 477.513 272.996C477.752 273.176 477.869 273.703 477.93 274.119C478.046 275.101 478.521 275.749 479.326 276.158C479.383 277.316 479.563 278.412 479.558 279.448C479.494 282.001 480.145 284.341 480.5 286.829C480.585 287.307 480.527 287.929 480.314 288.403C479.803 289.92 480.369 291.636 479.437 293.065C479.321 293.276 479.497 293.628 479.5 293.927C479.312 295.201 479.612 296.537 478.353 297.463C478.087 297.671 477.906 298.062 477.846 298.385C477.542 300.018 476.137 301.098 475.299 302.406C475 302.857 474.011 302.834 473.237 303.076C473.387 301.887 472.552 301.714 471.629 301.365C472.435 299.846 472.562 298.155 473.76 296.812C474.474 296.007 474.898 294.907 474.39 293.602C474.243 293.162 474.365 292.508 474.635 292.145C475.952 290.45 475.179 288.618 475.18 286.837C475.186 286.541 474.948 286.214 475.037 286.096C476.232 284.601 475.16 283.513 474.329 282.451C474.27 282.334 474.209 282.211 474.179 282.153C474.864 280.995 474.99 279.745 474.366 278.652C473.831 277.587 473.953 275.899 471.892 275.969C472.223 275.435 472.369 275.135 472.582 274.808C471.507 273.422 470.078 272.213 469.872 270.317C468.622 269.612 468.684 267.954 467.877 267.099C466.15 265.447 464.66 263.529 462.214 262.686C461.32 262.395 460.817 261.541 459.772 261.246C458.459 260.873 457.297 260.051 456.1 259.466C455.295 259.057 454.49 258.648 453.506 258.916C453.175 259.009 452.789 258.537 452.4 258.512C451.387 258.428 450.194 258.735 449.445 258.291C448.342 257.586 447.535 258.218 446.516 258.284C444.907 258.353 443.262 258.513 441.652 257.843C440.876 257.493 440.549 256.843 440.465 256.219C440.402 255.504 440.851 255.205 441.657 255.026C442.496 254.751 443.121 254.064 443.842 253.554ZM525.546 101.283C525.788 101.161 526.143 101.276 526.446 101.424C527.428 101.89 528.441 101.974 529.459 101.909C531.577 101.804 533.578 102.205 535.486 103.173C536.262 103.523 536.921 104.231 537.756 104.405C538.858 104.664 539.633 105.308 540.44 106.016C540.826 106.342 541.336 106.605 541.809 106.808C543.124 107.48 544.552 108.095 545.837 108.856C546.704 109.387 547.326 110.181 548.074 110.772C548.697 111.272 549.236 111.741 549.47 112.663C549.678 113.372 550.725 113.806 551.38 114.37C551.498 114.458 551.557 114.575 551.527 114.663C551.851 116.354 552.536 117.863 553.336 119.307C553.457 119.547 553.545 119.869 553.606 120.139C553.72 121.115 553.723 122.153 553.837 123.13C554.074 125.09 553.92 127.168 553.078 128.925C552.298 130.644 551.966 132.518 550.889 134.1C549.991 135.438 549 136.75 548.073 138.029C547.267 139.255 545.74 139.796 544.932 140.869C544.331 141.765 543.763 142.123 542.751 141.892C542.179 143.14 541.58 144.335 541.038 145.494C542.2 146.023 543.276 146.516 544.379 147.074C544.711 146.688 544.862 146.091 545.695 145.966C546.59 145.816 547.637 145.216 548.178 144.497C548.655 143.811 549.223 143.305 549.856 142.767C550.628 142.079 551.977 141.921 552.039 140.556C552.039 140.409 552.518 140.315 552.754 140.196C553.144 140.074 553.534 139.951 553.889 139.772C554.283 138.761 553.837 137.431 555.119 137.3C555.331 136.381 555.423 135.667 555.696 135.017C556.236 133.705 556.505 132.31 557.525 131.203C557.762 130.937 558.062 130.34 557.944 130.106C557.586 129.099 558.098 128.175 558.251 127.285C558.553 125.352 559.035 123.483 559.455 121.491C559.276 120.988 558.772 120.428 558.83 119.806C558.894 118.74 558.417 117.939 558.002 117.115C557.823 116.758 557.762 116.342 557.586 115.991C557.083 114.683 556.968 113.114 555.387 112.355C555.084 112.208 554.91 111.702 554.61 111.413C553.69 110.468 553.661 108.776 552.139 108.281C552.05 108.252 551.962 108.077 551.933 108.018C551.964 106.889 551.248 106.509 550.383 106.13C550.021 106.012 549.783 105.539 549.547 105.217C548.923 104.124 548.151 103.325 546.743 103.513C546.447 103.515 546.055 103.339 545.76 103.194C545.073 102.726 544.449 101.78 543.879 101.839C542.716 101.911 542.363 101.048 541.523 100.731C540.51 100.353 539.614 99.9102 538.478 99.8882C537.016 99.8095 535.224 99.8239 534.333 98.1984C534.274 98.0814 533.887 98.0492 533.739 98.0501C532.125 97.9752 530.361 98.3417 528.961 97.1921C528.932 97.1336 528.813 97.1931 528.813 97.1931C527.554 97.9728 526.151 97.2718 524.809 97.8732C523.166 98.626 522.805 98.8072 522.745 100.765C523.728 100.937 524.47 101.824 525.546 101.283ZM499.588 174.044C499.168 174.401 498.898 175.204 498.063 174.884C497.974 174.855 497.796 175.238 497.643 175.388C497.048 176.134 496.535 177.059 495.79 177.654C495.128 178.133 494.651 178.673 494.351 179.417C494.111 180.131 493.72 180.841 493.184 181.411C492.611 182.066 492.163 182.664 492.371 183.52C491.296 183.767 490.728 184.273 490.873 185.46C490.993 186.287 490.719 187.244 490.691 188.072C490.534 189.704 490.354 191.275 490.348 192.912C490.346 194.986 490.64 197.058 490.516 199.048C490.424 200.648 492.03 201.914 491.13 203.553C491.13 203.553 491.189 203.67 491.218 203.729C492.711 204.312 492.082 205.889 492.676 206.923C492.855 207.28 493.034 207.783 493.004 208.165C493.062 209.769 494.312 210.768 495.057 211.953C495.946 213.427 496.808 214.994 498.569 215.815C499.527 216.22 500.453 216.721 501.252 217.426C502.534 218.635 503.938 219.483 505.638 219.889C505.906 219.98 506.207 220.123 506.443 220.297C508.235 221.77 509.426 222.358 511.515 222.934C511.961 223.083 512.291 223.431 512.766 223.639C513.187 223.874 513.81 224.374 514.14 224.281C515.364 223.886 516.171 224.447 516.764 225.036C517.721 224.554 518.437 224.195 519.276 223.773C519.276 223.479 519.191 223.002 519.19 222.556C519.223 221.725 518.714 221.168 518.145 221.081C517.073 220.88 516.361 219.611 515.046 219.972C514.775 220.035 514.33 219.592 513.941 219.421C513.525 219.183 513.074 218.89 512.63 218.893C510.868 218.819 510.006 217.399 509.11 216.662C508.245 216.577 507.466 216.676 507.02 216.38C505.113 214.972 502.966 213.678 501.837 211.432C500.491 211.141 499.421 210.5 499.031 208.988C499.002 208.783 498.823 208.573 498.675 208.427C497.992 207.658 497.429 206.834 497.189 205.767C496.747 203.843 496.843 201.794 495.979 199.928C495.831 199.636 495.918 199.219 495.889 198.867C495.864 198.359 495.803 197.943 495.771 197.439C495.626 196.105 495.422 194.801 495.212 193.499C495.218 193.35 495.248 193.262 495.337 193.144C495.724 192.722 495.607 192.341 495.428 191.837C494.897 190.031 496.034 188.566 496.392 186.906C496.397 186.756 496.664 186.696 496.782 186.489C497.561 185.358 498.31 184.167 499.094 183.033C499.121 182.939 499.063 182.822 499.063 182.675C499.209 182.082 499.213 181.486 499.515 181.041C499.962 180.296 500.89 179.756 501.101 178.983C501.429 177.705 502.358 177.905 503.165 177.726C503.224 177.696 503.281 177.514 503.31 177.426C504.479 176.172 504.665 174.745 504.52 173.117C502.608 172.745 500.964 172.759 499.588 174.044ZM546.05 350.17C546.537 348.298 546.087 346.371 545.526 344.652C544.992 343.147 545.324 341.127 543.475 340.13C543.357 340.042 543.387 339.807 543.296 339.626C542.883 337.907 542.736 335.98 540.588 335.434C540.499 335.405 540.411 335.229 540.322 335.201C538.561 334.526 538.001 332.514 536.299 331.809C535.612 331.488 534.925 331.167 534.237 330.846C532.273 329.913 530.246 328.859 528.184 328.042C527.615 327.808 526.963 327.689 526.453 327.279C526.188 327.046 525.68 327.081 525.258 327.14C524.543 327.206 523.887 327.389 523.199 327.508C521.734 327.731 520.182 327.178 518.72 327.54C518.242 327.634 517.614 327.283 517.2 327.491C515.462 328.218 513.669 328.673 511.877 328.981C511.522 329.012 510.978 329.579 510.921 329.908C510.769 330.798 510.142 331.186 509.545 331.633C508.915 332.177 508.317 332.771 507.69 333.306C506.404 334.326 505.294 335.698 503.829 336.214C502.694 336.638 502.571 337.88 501.525 338.186C500.265 340.6 499.068 342.976 497.363 345.093C497.18 345.332 497.122 345.807 497.175 346.074C497.533 347.228 497.772 348.441 499.295 348.789C500.158 348.428 501.236 348.333 501.778 347.32C502.436 346.096 503.212 345.119 504.232 344.159C504.321 344.041 504.439 343.835 504.437 343.683C504.741 342.197 506.505 341.536 506.779 339.991C507.612 339.866 507.705 339.299 507.886 338.615C507.976 338.203 508.573 337.903 508.993 337.545C509.321 337.3 509.681 337.119 509.948 336.911C510.787 336.343 511.745 335.861 512.163 334.764C512.255 334.491 512.642 334.376 512.852 334.191C513.538 333.773 514.23 333.352 514.945 332.992C515.305 332.811 515.69 332.544 516.08 332.568C517.845 332.647 519.636 331.747 521.394 332.416C521.609 332.535 521.932 332.292 522.236 332.293C522.62 332.32 523.098 332.226 523.425 332.435C524.711 333.342 526.05 333.782 527.722 333.382C528.263 333.263 529.036 333.461 529.575 333.783C530.679 334.342 531.544 335.46 532.947 335.422C533.094 335.421 533.274 335.631 533.392 335.718C534.613 336.511 535.718 337.516 537.003 338.276C538.074 338.918 538.818 340.104 539.561 341.138C540.694 342.788 540.539 345.013 541.793 346.609C541.97 346.814 541.786 347.199 541.848 347.469C541.909 347.885 542.026 348.266 542.023 348.714C542.049 350.255 543.483 350.867 544.165 352.078C545.123 351.596 545.838 351.09 546.05 350.17ZM431.389 526.72C430.729 527.645 431.02 528.679 430.841 529.663C430.601 531.117 429.342 532.043 429.073 533.439C429.073 533.585 428.742 533.678 428.742 533.825C428.68 535.043 428.291 536.052 427.33 536.982C426.733 537.576 426.612 538.677 426.194 539.48C425.711 540.463 425.116 541.356 424.246 542.16C422.865 543.448 421.822 545.086 419.967 545.872C419.849 545.931 419.636 546.112 419.636 546.258C419.816 547.354 418.829 547.777 418.35 548.459C417.571 549.443 416.675 550.341 415.896 551.326C415.323 551.981 414.875 552.726 415.8 553.521C415.977 553.725 416.098 553.965 416.245 554.258C416.423 554.168 416.635 553.988 416.783 553.987C417.707 554.189 418.425 553.982 418.816 552.965C418.876 552.788 419.206 552.695 419.413 552.518C421.539 550.929 423.306 548.934 424.952 546.846C425.611 546.067 426.118 545.146 426.983 545.231C427.856 544.125 428.658 543.349 429.082 542.395C429.83 540.613 431.24 539.236 431.572 537.216C431.719 536.476 432.411 535.761 432.829 535.104C432.982 534.807 433.131 534.512 433.223 534.239C433.371 533.798 433.399 533.411 433.553 532.966C433.763 532.487 434.036 531.983 434.359 531.594C435.528 529.899 434.907 527.618 436.345 526.002C436.434 525.884 436.316 525.649 436.316 525.503C436.111 523.606 435.846 521.739 435.61 519.93C435.611 519.783 435.549 519.514 435.461 519.485C434.538 518.989 435.136 517.942 434.721 517.264C434.633 517.088 434.784 516.638 434.69 516.612C433.351 515.879 433.59 514.425 433.026 513.302C432.402 512.062 432.136 510.635 430.975 509.666C430.709 509.433 430.56 508.988 430.321 508.661C429.426 507.484 428.8 506.092 427.698 505.239C426.866 504.617 426.509 503.023 424.926 503.599C424.867 503.629 424.54 503.274 424.449 503.093C424.24 502.384 423.768 502.181 423.08 502.154C422.779 502.158 422.334 502.009 422.127 501.746C421.498 500.949 420.574 500.747 419.768 500.632C418.602 500.552 417.738 500.026 416.753 499.554C416.036 499.175 415.26 498.972 414.455 498.71C413.918 498.54 413.289 498.629 412.757 498.457C411.834 498.107 410.875 497.996 409.98 498.146C408.571 498.334 407.199 498.137 405.948 497.58C405.202 497.288 404.753 497.441 404.039 498.099C404.662 498.6 405.136 499.248 405.705 499.482C407.257 500.035 408.898 500.324 410.479 500.789C412.598 501.424 414.806 501.941 416.686 503.148C416.923 503.323 417.226 503.471 417.521 503.469C418.295 503.373 418.716 503.901 419.161 504.344C419.459 504.641 419.88 504.876 420.294 505.109C422.469 506.608 425.577 506.972 426.584 510.02C426.646 510.142 426.823 510.347 426.97 510.346C427.811 510.223 427.866 510.935 428.164 511.379C428.882 512.499 429.026 513.979 430.218 514.861C430.545 515.069 430.487 515.839 430.542 516.404C430.691 517.29 430.807 518.271 430.897 519.187C431.043 520.08 431.997 520.933 431.068 521.914C430.98 522.032 431.159 522.388 431.247 522.564C432.081 523.632 431.81 524.581 430.973 525.449C431.06 525.918 431.505 526.508 431.389 526.72ZM410.271 392.071C409.527 392.226 408.571 391.666 408.088 392.649C407.106 392.329 406.508 392.923 405.698 393.404C404.324 394.248 402.802 394.787 401.784 396.192C401.695 396.31 401.512 396.402 401.334 396.492C399.661 397.48 398.374 398.793 397.922 400.721C397.83 400.994 397.681 401.289 397.498 401.528C396.873 402.362 396.154 403.17 395.612 404.036C395.076 404.899 394.207 405.556 394.412 406.713C394.441 406.772 394.293 406.92 394.204 407.038C392.617 409.389 392.399 412.093 392.275 414.822C392.214 415.746 392.121 416.606 391.94 417.438C391.699 418.299 391.162 419.162 391.128 419.993C391.186 422.037 392.08 423.962 391.925 426.04C391.89 426.277 391.978 426.6 392.098 426.693C393.171 427.633 393.168 429.115 394.007 430.327C394.985 431.682 395.788 432.985 397.097 434.101C398.414 435.219 399.275 436.932 401.066 437.666C401.45 437.839 401.631 438.642 402.015 438.815C403.419 439.517 404.369 440.965 406.046 441.163C406.193 441.162 406.4 441.278 406.547 441.424C407.888 442.75 409.296 442.562 410.792 441.81C410.736 438.577 408.949 437.849 407.096 437.301C405.933 436.919 404.827 436.661 404.025 435.658C403.521 435.097 402.746 434.747 402.175 434.215C401.311 433.395 400.48 432.48 399.644 431.567C399.287 431.152 398.901 430.68 398.604 430.236C398.033 429.409 397.352 428.645 396.846 427.786C396.608 427.312 396.789 426.627 396.522 426.242C395.567 425.095 396.285 423.4 395.159 422.34C395.004 422.191 395.096 421.625 395.244 421.477C395.936 420.762 395.607 419.961 395.671 419.189C395.762 417.736 396.184 416.337 396.098 414.973C395.954 413.346 397.146 412.299 397.45 410.813C397.903 408.885 398.892 407.128 399.793 405.341C400.392 404.146 401.053 402.927 401.89 401.913C403.237 400.422 404.701 398.872 406.407 397.788C407.814 396.861 409.25 395.992 410.711 395.184C411.822 394.552 413.254 394.572 414.565 394.353C415.732 394.14 416.898 394.073 418.121 393.825C418.602 393.737 419.167 393.372 419.41 392.957C419.733 392.421 419.347 391.948 418.934 391.569C418.548 391.243 418.127 390.862 417.682 390.419C414.962 390.973 412.602 391.493 410.271 392.071ZM567.069 408.644C566.826 409.206 566.703 410.008 566.256 410.313C564.577 411.597 562.818 412.708 561.08 413.876C560.246 414.442 559.318 414.835 558.271 414.695C557.317 414.581 556.569 415.331 555.792 415.421C553.58 415.646 551.313 415.453 549.078 415.617C548.656 415.676 548.205 415.235 547.762 415.238C545.164 415.284 542.532 415.721 540.268 414.046C540.029 413.866 539.699 413.812 539.403 413.813C537.971 414.087 536.928 413.205 535.819 412.649C535.406 412.416 535.049 412.002 534.568 411.944C533.018 411.837 531.914 410.685 530.959 409.832C529.857 408.832 528.335 408.044 527.656 406.532C527.597 406.415 527.538 406.298 527.441 406.266C526.519 406.363 526.494 405.562 526.162 405.063C525.835 404.56 525.148 404.386 524.644 403.973C524.496 403.827 524.435 403.558 524.258 403.353C523.598 402.645 523.366 401.728 522.352 401.198C521.606 400.759 520.411 400.473 520.118 399.287C519.848 398.309 519.162 397.694 518.058 397.282C517.58 397.523 517.012 397.882 516.356 398.212C517.129 399.897 517.122 401.827 519.09 402.765C518.4 403.925 519.237 404.398 520.012 404.894C520.369 405.162 520.906 405.332 521.026 405.718C521.443 406.989 522.812 407.634 523.228 408.905C523.287 409.022 523.408 409.115 523.497 409.143C525.017 409.486 525.524 410.938 526.538 411.761C526.836 412.058 527.072 412.38 527.369 412.677C529.1 413.88 531.337 414.309 532.496 416.32C532.526 416.378 532.711 416.439 532.859 416.438C534.71 416.394 535.873 417.662 537.212 418.542C537.87 418.952 538.522 419.364 539.481 419.182C540.438 418.994 541.482 419.436 542.465 419.608C542.884 419.691 543.359 420.046 543.601 419.924C544.796 419.177 546.139 419.168 547.364 419.219C548.648 419.24 550.055 418.606 551.276 419.399C551.423 419.545 551.724 419.393 551.991 419.333C552.832 419.21 553.665 419.084 554.471 419.052C556.263 419.038 558.055 419.024 559.728 418.183C560.863 417.612 561.909 417.013 563.044 416.442C564.273 415.897 565.529 415.419 566.782 414.936C567.111 414.397 567.292 413.713 567.801 413.237C568.522 412.581 569.48 412.099 570.222 411.499C570.642 411.141 570.944 410.696 571.243 410.246C571.451 409.921 571.632 409.53 571.898 409.323C573.516 407.916 573.787 406.673 572.84 404.482C570.898 404.345 569.582 405.307 568.561 406.854C568.143 407.511 567.545 408.105 567.004 408.677C567.098 408.703 567.069 408.644 567.069 408.644ZM579.754 286.703C580.47 287.23 581.065 287.971 581.782 288.35C584.05 289.43 586.409 290.544 588.34 292.16C588.467 292.25 588.673 292.366 588.821 292.365C590.972 292.917 593.179 293.434 595.387 293.951C595.655 294.043 595.956 294.038 596.252 294.036C596.999 294.034 597.654 293.998 598.401 293.996C598.732 294.05 599.092 293.722 599.477 293.602C601.092 293.236 602.88 293.964 604.409 292.822C604.527 292.763 604.766 292.796 604.943 292.853C606.17 293.35 606.919 292.307 607.785 291.791C608.772 291.221 609.462 290.061 610.444 289.787C612.207 289.274 612.927 288.025 613.379 286.538C613.5 286.177 613.44 285.614 613.204 285.439C612.935 285.201 612.398 285.178 612.068 285.27C611.441 285.512 610.873 285.871 610.335 286.141C608.539 287.045 606.986 288.419 604.836 288.606C603.968 288.676 602.837 288.505 602.177 289.43C602.088 289.548 601.696 289.372 601.49 289.402C600.592 289.56 599.46 288.649 598.711 289.84C598.622 289.958 598.023 289.812 597.668 289.697C597.395 289.608 597.07 289.404 596.863 289.435C595.484 289.682 594.263 289.182 592.979 289.014C591.518 288.789 590.502 287.666 589.129 287.323C588.383 287.178 587.731 286.619 587.014 286.386C586.149 286.154 586.237 285.443 586.093 284.849C585.016 284.797 584.151 284.565 583.852 283.382C583.732 282.996 583.23 282.735 582.874 282.467C582.571 282.173 582.068 282.059 581.978 281.731C581.502 280.49 580.4 279.491 580.491 278.038C580.465 277.677 580.404 277.261 580.257 276.969C579.662 276.081 579.691 275.106 579.752 274.035C579.85 272.433 579.85 270.799 578.899 269.35C579.436 268.34 579.377 268.37 579.291 267.006C579.263 266.507 579.562 265.91 579.684 265.402C579.743 265.225 579.921 264.989 579.862 264.872C579.089 263.481 580.347 262.848 580.884 261.985C580.142 260.804 579.876 259.231 578.324 258.824C576.918 259.165 576.234 260.175 575.93 261.515C575.776 262.106 575.718 262.728 575.537 263.266C575.056 264.695 574.572 266.118 574.064 267.788C574.27 268.051 574.632 268.462 574.48 269.352C574.119 271.167 574.856 273.09 574.138 274.931C574.052 275.201 574.193 275.644 574.284 275.971C574.909 277.657 576.58 278.891 576.125 280.973C576.095 281.062 576.272 281.119 576.331 281.236C577.436 282.241 577.646 283.542 577.643 284.877C578.383 285.612 579.043 286.174 579.754 286.703ZM526.756 460.765C525.624 460.148 524.521 459.442 523.45 458.8C523.236 458.681 522.882 458.42 522.704 458.509C521.416 459.23 520.283 458.613 519.118 458.238C518.938 458.175 518.731 458.059 518.613 458.119C517 458.637 515.329 458.29 513.653 458.239C513.417 458.211 513.234 458.303 512.997 458.422C512.43 458.634 511.921 458.963 511.384 459.087C509.977 459.574 508.485 460.024 507.079 460.511C506.305 460.754 505.554 461.204 504.81 461.506C504.124 461.777 503.371 461.929 502.686 462.2C502.508 462.289 502.355 462.44 502.147 462.617C501.789 462.951 501.399 463.22 501.103 463.516C499.994 464.594 498.438 465.076 497.572 466.478C497.03 467.344 496.285 468.086 495.596 468.806C493.918 470.536 492.211 472.207 491.792 474.792C491.757 475.03 491.638 475.236 491.52 475.442C491.161 476.216 491.516 477.525 492.173 477.934C492.616 478.225 494.29 477.83 494.622 477.296C495.28 476.219 496.029 475.175 496.571 474.016C496.96 473.154 497.319 472.38 498.187 471.87C498.483 471.721 498.755 471.364 498.812 471.035C498.994 470.204 499.591 469.904 500.223 469.512C501.867 468.466 503.361 467.268 505.098 466.248C506.984 465.08 509.011 464.354 510.926 463.391C511.405 463.15 512.033 463.354 512.6 463.289C513.436 463.169 514.24 462.985 515.049 462.945C516.838 462.939 518.63 462.924 520.454 463.121C521.585 463.292 522.839 463.695 523.764 464.343C525.133 465.282 526.326 466.316 528.061 466.63C528.209 466.629 528.327 466.863 528.445 466.95C530.054 468.368 531.666 469.778 533.331 471.161C535.212 472.809 536.045 475.057 536.637 477.28C537.08 479.058 537.703 480.298 539.491 480.879C539.852 480.404 540.243 479.988 540.453 479.508C540.602 479.214 540.635 478.824 540.517 478.589C540.011 477.73 540.187 476.902 540.61 476.242C540.105 475.236 539.69 474.411 539.272 473.581C538.561 472.166 538.024 470.655 537.191 469.294C536.058 467.496 534.481 465.996 532.872 464.578C532.333 464.109 531.77 463.578 531.112 463.463C529.798 463.236 529.262 462.465 528.937 461.522C527.981 461.109 527.296 461.087 526.756 460.765ZM600.983 179.208C602.091 177.391 602.097 177.094 600.873 175.41C600.576 174.966 600.397 174.316 600.277 173.782C600.012 171.915 600.376 169.959 599.485 168.187C599.365 167.947 599.489 167.591 599.575 167.321C599.727 166.578 600.027 165.834 600.12 165.12C600.3 163.696 600.126 162.157 601.324 160.961C601.472 160.813 601.564 160.393 601.446 160.306C600.581 159.041 601.837 158.109 602.049 157.042C602.136 156.625 602.349 156.298 602.532 155.913C603.702 152.731 604.695 149.491 608.04 147.809C608.282 147.687 608.581 147.384 608.611 147.149C608.882 146.199 609.774 146.044 610.462 146.071C611.088 146.123 611.389 145.972 611.779 145.556C612.948 144.301 614.681 144.023 616.139 144.55C617.157 144.925 618.052 144.922 619.038 144.793C619.395 144.767 619.755 144.732 620.11 144.847C621.543 145.313 623.066 145.808 624.44 146.304C625.423 146.623 627.695 146.074 627.965 145.272C628.176 144.646 628.233 144.023 628.415 143.192C627.016 142.635 625.642 141.992 624.267 141.497C623.108 141.12 621.671 141.842 620.868 140.392C620.839 140.334 620.632 140.364 620.567 140.397C619.586 140.67 618.926 140.108 618.151 139.612C617.824 139.403 617.198 139.204 616.902 139.353C615.821 140.043 614.595 140.139 613.311 140.265C612.177 140.395 610.922 140.58 610.058 141.234C609.162 141.838 608.293 142.495 607.215 142.737C605.307 143.109 604.255 144.745 603.057 145.941C601.593 147.344 600.367 149.074 599.732 151.093C599.645 151.364 599.491 151.661 599.314 151.897C597.843 153.45 598.022 155.734 596.914 157.551C596.612 157.996 596.578 158.533 596.158 159.038C595.652 159.666 595.174 160.793 595.38 161.51C595.588 162.218 595.557 162.747 595.435 163.402C595.314 164.503 594.772 165.662 595.012 166.729C595.485 169.158 595.297 171.772 596.515 174.047C596.574 174.164 596.547 174.405 596.546 174.551C596.6 177.045 598.058 178.752 599.697 180.375C599.815 180.462 600.027 180.429 600.384 180.549C600.713 179.864 600.835 179.503 600.983 179.208ZM538.396 519.215C540.094 519.321 541.799 519.577 543.497 519.831C543.739 519.856 543.978 519.889 544.125 520.035C545.555 521.243 547.501 520.784 549.141 521.513C550.569 522.129 551.914 522.859 553.253 523.593C553.881 523.944 554.269 524.716 555.256 524.293C555.433 524.203 555.943 524.614 556.238 524.906C556.565 525.261 556.833 525.647 557.101 526.032C557.907 527.033 559.252 527.617 559.486 529.127C559.517 529.484 559.93 529.863 560.258 530.072C561.537 530.982 562.045 532.287 562.639 533.615C562.94 533.611 563.235 533.609 563.386 533.613C564.277 535.386 565.079 537.129 566 538.813C566.927 540.347 566.986 540.318 567.366 542.574C567.424 542.838 567.698 543.073 567.816 543.308C567.965 543.606 568.204 543.933 568.227 544.287C568.408 545.53 568.523 546.806 568.757 548.315C570.195 547.892 571.33 547.468 572.434 547.133C572.499 544.433 572.056 541.769 571.135 539.938C570.45 538.576 570.187 537.008 569.833 535.552C569.774 535.435 569.804 535.2 569.863 535.024C570.403 534.006 570.106 533.415 568.999 533.158C567.957 532.868 567.809 532.13 568.079 531.474C566.169 529.914 565.342 527.962 564.687 526.365C563.703 525.746 562.897 525.485 562.452 524.895C561.914 524.279 561.738 523.327 561.441 522.589C560.368 522.089 559.173 521.803 558.247 521.155C557.292 520.448 556.55 519.415 555.686 518.595C555.536 518.444 555.27 518.358 555.058 518.244C552.884 517.484 550.674 516.815 548.523 516.116C548.163 516.004 547.718 515.855 547.328 515.83C546.014 515.751 544.852 515.222 543.959 514.638C543.303 514.821 542.646 515.151 542.225 515.063C540.224 514.662 538.254 514.912 536.195 515.428C536.31 516.85 534.634 517.993 535.585 519.441C536.81 519.345 537.62 519.159 538.396 519.215ZM384.569 592.408C383.166 591.56 382.008 590.142 380.785 588.903C380.424 588.491 380.038 588.019 379.95 587.549C379.863 586.479 379.301 585.802 378.824 585.002C377.809 583.439 377.189 581.75 376.77 580.034C376.419 578.583 376.33 577.068 375.855 575.68C375.647 575.118 375.65 574.669 375.769 574.169C376.01 573.308 376.372 572.379 376.672 571.488C376.761 571.223 376.762 570.93 376.642 570.69C376.107 569.479 376.442 568.497 377.725 567.779C377.817 567.212 377.668 566.474 377.997 566.082C379.107 564.71 380.217 563.192 381.71 562.288C382.963 561.511 384.013 560.463 385.267 559.686C385.657 559.416 385.838 558.879 386.075 558.466C384.498 557.259 382.883 557.331 381.452 557.903C380.406 558.356 379.447 558.538 378.789 558.276C377.834 559.056 377.088 559.651 376.219 560.308C376.221 560.46 376.304 560.932 376.099 561.262C375.232 562.365 374.3 563.353 373.91 564.803C373.88 564.891 373.668 564.924 373.638 565.013C373.22 565.816 372.708 566.594 372.467 567.455C372.321 568.196 372.074 570.693 371.774 571.437C371.655 571.791 371.502 572.088 371.474 572.475C371.44 573.453 371.65 574.46 371.409 575.322C371.139 576.271 372.332 577.305 371.25 578.142C371.25 578.142 371.341 578.323 371.4 578.44C372.083 579.65 371.873 581.309 373.007 582.373C373.184 582.577 373.121 582.908 373.209 583.231C373.479 584.356 373.683 585.513 373.952 586.638C373.952 586.785 374.161 587.053 374.22 587.023C375.236 586.953 374.995 587.814 375.051 588.086C375.915 588.612 376.72 588.873 376.988 589.405C377.464 590.353 378.361 590.942 378.657 591.974C378.868 592.688 379.548 593.452 380.206 593.715C382.327 594.649 384.143 596.183 386.322 597.087C388.798 598.136 391.362 598.627 393.989 598.933C395.872 599.099 397.723 599.202 399.607 599.222C400.203 599.215 400.891 599.096 401.518 598.855C401.878 598.673 402.266 598.105 402.208 597.841C402.088 597.455 401.578 597.044 401.223 596.929C400.447 596.726 399.577 596.79 398.741 596.763C396.173 596.721 393.845 595.671 391.402 595.127C390.298 594.861 389.192 594.311 387.882 593.783C387.882 593.783 387.791 593.455 387.553 592.834C386.267 594.148 385.318 592.851 384.569 592.408ZM412.411 627.675C413.725 627.755 415.251 626.167 415.012 624.807C414.749 623.239 414.935 621.666 414.965 620.09C414.934 619.586 415.029 619.025 415.18 618.575C415.569 617.566 416.111 616.553 416.5 615.544C416.8 614.8 416.863 614.028 417.281 613.372C418.898 610.932 420.993 608.838 423.058 606.686C423.295 606.421 423.655 606.239 423.927 606.029C426.224 604.501 428.739 603.39 431.221 602.215C431.581 602.034 431.995 602.119 432.387 602.149C432.624 602.177 432.83 602.44 432.948 602.38C433.731 602.14 434.475 601.839 435.255 601.447C437.915 600.33 439.851 600.763 441.819 602.734C442.028 603.002 442.415 603.181 442.716 603.176C445.343 603.482 446.77 605.732 448.95 606.783C449.272 608.027 450.348 607.78 451.212 608.012C451.904 607.444 452.472 606.939 453.155 606.368C452.267 605.635 451.461 604.78 450.505 604.22C447.076 602.171 444.126 599.427 440.276 598.029C440.01 597.943 439.736 597.707 439.619 597.473C439.439 597.116 439.203 597.088 438.849 596.973C437.474 596.477 436.191 597.049 434.96 597.295C433.321 597.599 431.798 598.444 430.183 598.81C428.301 599.236 426.594 600.021 424.803 600.628C423.34 601.137 421.995 602.04 420.765 603.025C419.928 603.746 419.332 604.786 418.077 604.97C417.924 604.974 417.894 605.356 417.713 605.6C417.447 605.954 417.145 606.252 416.908 606.518C415.498 607.894 414.124 609.331 413.878 611.375C413.758 612.329 412.741 612.987 412.769 614.087C412.739 614.175 412.473 614.236 412.29 614.328C412.083 614.505 411.782 614.657 411.752 614.892C411.331 616.883 410.967 618.84 410.606 620.802C410.576 621.037 410.755 621.247 410.785 621.452C410.81 622.106 410.988 622.903 410.778 623.529C410.267 625.046 410.293 626.587 410.617 628.424C411.244 628.035 411.635 627.619 412.411 627.675ZM508.137 549.018C507.868 550.267 507.535 551.695 506.786 552.738C505.676 554.403 504.152 555.836 502.808 557.332C502.507 557.63 502.294 557.957 501.998 558.253C501.037 559.33 500.11 560.462 499.095 561.419C498.646 561.865 497.807 561.994 497.54 562.494C496.939 563.39 496.041 563.695 495.207 564.114C493.949 564.747 492.605 564.903 491.173 564.882C489.564 564.805 487.978 565.082 486.334 565.095C484.362 565.047 482.398 564.854 480.456 564.717C478.75 564.608 477.111 564.472 475.501 563.802C473.587 562.984 471.861 561.924 469.95 561.259C468.787 560.876 467.803 559.964 466.791 559.293C465.984 558.732 465.176 558.025 464.436 557.437C463.511 556.642 463.213 555.312 461.932 554.842C461.843 554.813 461.844 554.519 461.694 554.368C461.102 553.486 460.655 552.597 460.238 551.62C459.97 550.941 459.254 550.414 458.656 549.975C457.854 549.412 456.449 550.344 456.593 551.232C456.773 552.182 457.129 553.036 457.428 553.926C457.66 554.696 458.199 555.165 458.703 555.725C459.897 556.906 460.818 558.296 461.92 559.442C462.816 560.325 463.771 561.032 464.814 561.767C465.947 562.531 467.049 563.237 468.244 563.817C470.064 564.755 471.913 565.606 473.76 566.451C474.833 566.951 475.913 567.448 477.014 567.708C478.209 567.994 479.487 568.165 480.682 568.304C481.252 568.391 481.878 568.296 482.477 568.295C483.998 568.344 485.554 568.301 487.074 568.35L492.028 568.526C492.571 568.253 493.045 568.015 493.612 567.803C493.854 567.682 494.12 567.621 494.424 567.622C494.873 567.616 495.375 567.73 495.735 567.549C497.526 566.649 499.414 565.779 501.026 564.669C501.688 564.19 502.616 563.65 502.642 562.523C502.648 562.226 502.971 561.837 503.213 561.715C504.02 561.39 504.349 560.704 504.831 560.015C505.85 558.316 507.167 556.767 508.305 555.155C508.784 554.474 509.172 553.758 509.472 553.014C509.772 552.27 509.924 551.527 510.224 550.783C510.794 549.089 510.921 547.398 509.758 545.836C508.829 546.817 508.443 547.831 508.137 549.018ZM602.321 440.772C601.96 441.1 601.422 441.518 601.097 441.461C600.109 441.291 599.6 441.914 599.36 442.481C598.82 443.793 597.263 444.276 596.906 445.642C595.919 445.918 595.855 446.984 595.26 447.583C593.941 448.833 592.923 450.239 592.441 451.961C592.019 453.36 591.6 454.751 590.016 455.181C590.1 456.098 589.564 456.961 589.649 457.586C589.741 458.653 589.291 459.246 588.749 459.965C588.929 460.175 589.318 460.346 589.347 460.551C589.522 461.797 589.579 463.102 589.665 464.319C589.722 465.477 589.364 466.843 589.927 467.667C590.907 469.175 591.025 470.749 591.473 472.377C591.649 472.875 591.887 473.349 592.126 473.823C592.511 474.442 592.899 475.067 593.491 475.95C594.388 476.392 594.447 476.363 594.923 477.604C595.249 478.4 595.753 478.813 596.411 479.222C596.709 479.373 597.068 479.485 597.277 479.753C598.766 481.225 600.224 482.639 601.691 484.055C602.97 484.226 603.57 483.477 604.136 482.672C603.875 481.697 603.664 480.836 603.515 480.244C601.968 478.802 600.597 477.564 599.257 476.238C598.688 475.71 598.391 474.973 597.769 474.619C596.577 473.885 596.338 472.818 596.251 471.601C596.191 470.745 596.045 469.998 595.418 469.354C594.316 468.208 593.991 466.811 594.829 465.356C593.638 464.621 593.638 464.621 593.611 463.375C593.585 462.721 593.554 462.069 593.523 461.418C593.41 460.589 593.47 459.811 593.891 459.013C594.668 457.436 595.955 456.122 595.902 454.221C595.903 454.074 595.959 453.893 596.078 453.686C596.833 452.346 597.55 450.946 598.3 449.608C599.319 447.762 600.25 445.888 602.165 444.778C603.357 444.025 604.345 443.162 605.182 442.147C605.425 441.879 605.724 441.428 605.96 441.456C607.542 441.627 608.62 440.045 610.143 440.246C610.266 439.591 610.387 439.083 610.504 438.431C607.521 437.711 604.146 439.188 602.321 440.772ZM472.564 390.527C472.446 390.293 472.326 390.053 472.149 389.849C471.465 389.079 470.717 388.342 469.977 387.607C469.17 386.9 468.422 386.015 467.498 385.666C465.531 384.875 463.441 384.446 461.471 383.663C459.178 382.816 456.785 382.238 454.098 382.55C453.917 383.087 453.647 383.743 453.436 384.516C454.778 384.801 455.888 385.064 456.989 385.323C458.095 385.58 459.409 385.66 460.211 386.37C461.675 387.634 463.256 388.393 465.014 389.062C466.118 389.474 466.983 390.593 467.968 391.358C468.443 391.712 469.041 392.005 469.339 392.449C470.198 393.717 471.002 395.02 471.779 396.256C472.523 397.589 473.264 398.916 473.89 400.308C474.275 401.221 474.87 402.256 474.75 403.21C474.622 405.194 474.113 407.157 473.692 409.149C473.54 409.892 473.329 410.812 472.785 411.379C471.977 412.305 471.739 413.465 471.408 414.591C471.138 415.541 470.685 416.435 470.326 417.356C470.269 417.538 470.086 417.63 469.908 417.719C469.191 417.927 469.069 418.435 469.159 419.056C469.275 420.185 468.673 421.227 467.781 421.529C466.821 421.859 467.061 422.925 466.31 423.229C466.696 423.848 466.158 424.266 465.894 424.625C465.233 425.697 465.199 426.675 466.213 427.498C466.842 427.409 467.825 427.581 468.094 427.219C468.903 425.999 470.487 425.423 470.49 423.648C470.524 422.964 471.031 422.042 471.604 421.681C472.559 421.047 472.408 419.716 473.575 419.356C473.217 418.643 474.265 418.342 474.086 417.839C473.584 416.385 475.259 415.696 475.232 414.449C477.204 413.304 476.465 410.789 477.929 409.386C477.63 408.349 478.29 407.424 478.354 406.505C478.446 404.905 478.18 403.332 478.036 401.704C477.949 400.781 477.534 399.809 477.531 398.918C477.537 398.474 477.476 398.205 477.24 397.884C476.372 396.76 475.601 395.521 474.856 394.335C474.679 393.984 474.737 393.508 474.711 392.854C473.635 392.362 473.011 391.563 472.564 390.527ZM424.534 343.414C424.322 343.447 423.996 343.538 423.937 343.714C423.158 344.846 421.933 344.648 420.856 344.743C420.348 344.779 419.905 344.635 419.424 344.723C416.824 345.517 414.2 345.056 411.602 344.809C411.21 344.779 410.708 344.665 410.375 344.459C408.795 343.554 406.917 343.237 405.547 341.999C405.244 341.705 404.653 341.709 404.231 341.474C403.16 340.979 402.022 340.511 401.096 339.863C400.12 339.101 399.671 337.766 398.388 337.305C398.297 337.27 398.208 337.095 398.179 337.036C397.678 334.995 395.531 333.553 396.254 331.117C396.284 331.028 396.104 330.965 396.045 330.848C395.54 329.549 395.454 328.038 395.309 326.704C395.132 325.307 394.538 324.125 394.328 322.824C394.296 322.466 393.795 322.205 393.497 321.908C393.225 322.118 393.077 322.266 392.806 322.329C391.103 323.112 391.044 323.288 391.664 324.977C392.172 326.282 392.5 327.524 391.957 328.977C391.687 329.633 391.505 330.611 391.804 331.207C392.31 332.36 392.455 333.547 392.689 334.763C392.867 335.707 393.284 336.684 393.788 337.537C394.264 338.338 394.983 339.017 395.575 339.752C396.353 340.695 396.976 341.788 398.381 342.049C398.617 342.077 398.794 342.281 398.945 342.432C400.224 343.342 401.509 344.25 402.762 345.253C403.776 346.077 405.001 346.275 406.161 346.651C406.996 346.972 407.679 347.888 408.484 348.15C409.384 348.438 410.456 348.199 411.475 348.28C413.172 348.387 414.966 348.818 416.581 348.599C418.31 348.324 419.893 349.382 421.772 348.657C424.106 347.776 426.734 347.642 428.736 345.822C429.396 345.19 430.023 344.508 430.774 344.057C432.092 343.247 432.331 342.087 432.334 340.459C431.853 340.4 431.351 340.286 430.929 340.198C428.837 341.397 427.162 343.279 424.534 343.414ZM442.568 112.482C442.865 112.779 443.227 113.043 443.582 113.159C445.311 113.623 446.836 114.416 448.357 115.351C448.773 115.589 449.253 115.941 449.667 115.88C451.849 115.596 454.147 116.734 456.152 115.213C456.3 115.065 456.63 115.119 456.867 115.147C457.761 115.29 458.481 115.075 459.197 114.568C459.646 114.269 460.184 113.999 460.722 114.022C462.428 113.984 464.035 113.469 465.501 112.659C466.636 112.088 467.895 111.602 468.823 110.768C469.66 110.047 470.587 108.915 470.591 108.026C470.651 106.215 471.763 105.29 472.719 104.069C473.379 103.29 474.335 102.363 474.457 101.414C474.818 98.7129 475.988 96.2705 476.8 93.7157C477.1 92.8247 477.015 92.0537 476.99 91.253C476.092 91.7047 475.223 92.068 474.478 92.516C474.029 92.8153 473.52 93.2911 473.309 93.7704C472.678 95.1948 472.256 96.7406 471.45 98.1127C470.878 99.0669 470.696 100.192 469.977 101C469.322 101.776 469.792 103.167 468.54 103.503C468.295 105.106 466.62 105.649 465.991 106.932C465.573 107.735 464.916 108.506 464.136 108.898C463.391 109.346 462.375 109.27 461.569 109.448C459.687 109.874 457.771 110.098 456.04 110.822C453.439 111.909 451.467 112.007 449.353 110.63C449.143 110.509 448.967 110.304 448.754 110.338C447.352 110.376 446.338 109.553 445.294 108.817C444.46 108.203 443.836 107.257 442.911 107.348C441.802 108.279 440.903 109.025 440.007 109.775C440.991 110.981 441.763 111.779 442.568 112.482ZM665.503 74.9828C664.457 75.5823 663.415 75.4396 662.34 75.3931C662.101 75.36 661.77 75.4529 661.682 75.5709C661.051 76.2612 660.335 75.8814 659.647 75.8538C659.027 75.7991 658.333 75.9211 657.737 75.9276C655.767 76.0311 653.827 76.3401 652.218 74.7754C651.649 74.2478 650.664 73.6295 650.038 73.7243C648.995 73.8753 648.456 73.4062 647.923 72.7876C647.746 72.5832 647.508 72.2564 647.295 72.2898C645.745 72.3292 644.64 71.3246 643.386 70.7748C642.401 70.3033 641.118 69.9886 640.641 69.1881C640.076 68.212 638.975 68.099 638.407 67.2777C638.139 66.8924 637.93 66.4772 637.633 66.0333C637.306 65.5309 637.039 64.9987 636.653 64.526C635.935 63.5535 635.133 62.6964 633.968 62.3222C633.433 62.1441 632.748 62.1219 632.269 62.3626C631.732 62.633 631.429 63.225 631.012 63.735C631.25 64.2086 631.429 64.712 631.667 65.1857C632.141 66.1277 632.493 67.2841 633.242 67.8746C634.285 68.7568 635.299 69.5805 636.189 70.6132C636.878 71.3803 637.653 72.024 638.366 72.8524C638.752 73.3251 639.138 73.7978 639.799 73.7588C640.841 73.7547 641.439 74.3408 641.822 75.262C642.03 75.6772 642.599 76.2047 642.959 76.1704C644.421 76.1021 645.853 76.1222 646.774 77.5125C646.833 77.6296 647.107 77.7186 647.284 77.7761C648.6 78.3016 649.966 78.7946 651.311 79.2317C651.851 79.4071 652.383 79.5798 652.952 79.6669C654.865 79.8921 656.745 80.0534 658.652 80.2813C659.192 80.3098 659.877 80.4789 660.267 80.2094C661.526 79.2829 662.925 79.8398 664.272 79.5293C665.107 79.4091 665.584 79.0162 665.915 78.4828C666.457 77.4702 666.726 76.3685 667.209 75.2387C666.161 75.0987 665.745 74.8611 665.503 74.9828ZM368.648 512.041C369.339 511.767 370.174 511.054 370.266 510.487C370.511 508.884 372.005 507.833 371.949 506.087C371.922 504.841 372.669 503.498 373.005 502.223C373.273 501.121 373.128 499.64 373.753 498.806C374.987 497.078 374.722 495.211 374.516 493.461C374.25 490.855 373.508 488.334 372.946 485.729C372.683 484.602 372.503 483.359 372.12 482.291C371.495 480.458 370.722 478.773 369.984 476.997C369.835 476.699 369.564 476.469 369.355 476.201C368.821 475.582 368.347 474.934 367.717 474.137C367.476 475.145 366.966 476.221 367.026 477.225C367.083 478.236 367.291 479.239 367.796 480.245C368.629 481.9 368.799 483.741 369.306 485.486C369.779 487.029 369.627 488.805 370.283 490.403C370.371 490.578 370.373 490.73 370.397 490.939C370.512 492.508 370.63 494.082 370.745 495.651C370.777 495.862 370.776 496.155 370.657 496.362C369.697 498.178 369.632 500.138 369.15 502.007C368.727 503.553 368.128 505.041 367.44 506.501C366.927 507.572 365.942 508.441 365.429 509.512C365.13 510.109 364.804 510.346 364.296 510.675C363.486 511.156 362.379 511.339 361.934 512.383C361.391 513.69 361.778 514.755 362.284 515.908C363.354 515.663 364.284 515.422 365.359 515.175C366.02 513.956 366.976 512.735 368.648 512.041ZM623.509 352.855C622.253 352.006 620.914 351.272 619.628 350.512C618.676 350.991 617.987 350.223 617.359 349.872C614.734 348.525 611.99 347.531 609.036 347.016C607.87 346.789 606.681 346.501 605.515 346.567C604.348 346.633 603.425 346.431 602.768 345.875C601.601 346.088 600.644 346.275 599.72 346.367C598.349 346.469 596.944 346.355 595.776 347.316C595.628 347.464 595.363 347.378 595.15 347.411C593.688 347.626 592.133 347.521 590.818 348.029C588.968 348.813 587.351 350.073 585.648 351.149C585.465 351.241 585.378 351.658 585.407 351.863C585.371 353.735 586.508 353.757 588.211 353.567C589.552 353.406 590.955 353.221 592.21 353.036C592.902 352.616 593.467 352.105 594.153 351.833C595.201 351.386 596.218 350.875 597.412 351.454C598.729 350.199 600.275 350.755 601.715 350.778C602.459 350.77 603.175 350.557 603.862 350.585C605.028 350.665 606.342 350.598 607.295 351.153C608.221 351.654 609.172 351.616 610.16 351.785C611.831 352.132 613.471 352.714 615.234 352.641C615.443 352.616 615.685 352.788 615.892 352.904C617.054 353.58 618.274 354.373 619.531 354.928C620.811 355.545 622.215 355.952 623.676 356.471C624.006 355.345 624.043 353.18 623.509 352.855ZM595.582 43.9181C595.488 44.7783 596.171 45.8418 595.066 46.471C595.007 46.5008 595.039 46.7115 595.097 46.8286C595.72 47.3291 595.211 47.8049 595.06 48.2544C594.795 48.9075 594.192 49.651 594.341 50.2427C594.724 52.0503 594.006 53.598 593.284 55.0016C592.717 56.2467 591.994 57.6503 590.947 58.6903C590.05 59.5878 590.018 60.7173 590.642 61.6637C591.087 62.4003 592.462 62.896 593.419 62.5614C594.943 62.0149 596.047 60.793 597.038 59.6279C598.627 57.7221 597.792 55.0284 599.26 53.03C599.831 52.2227 599.651 50.9798 600.432 50.1471C600.585 49.9966 600.555 49.3454 600.404 49.1942C599.688 48.5207 599.959 47.718 600.199 47.0037C600.71 45.4866 600.778 43.9725 600.595 42.4306C600.601 42.1342 600.541 41.5713 600.718 41.482C601.38 41.1493 601.171 40.7342 600.936 40.2659C600.577 39.4059 600.399 38.6088 599.715 37.839C599.176 37.2231 599.297 35.9756 599.033 34.9949C598.854 34.3446 598.168 33.8765 598.171 33.2812C597.995 31.5897 596.68 30.9175 595.518 29.9479C594.77 30.8444 594.174 31.5905 593.724 32.1834C594.079 33.6388 594.436 34.9393 594.7 36.2137C594.998 37.5439 595.261 38.8184 595.436 40.2108C595.467 40.5683 595.107 40.8964 594.837 41.4054C595.703 42.5237 595.762 42.494 595.582 43.9181ZM370.05 649.935C370.556 649.307 371.006 648.715 371.364 648.234C371.156 647.672 370.95 647.263 370.8 646.818C370.177 645.578 369.586 644.241 368.962 643.001C367.707 643.039 367.527 641.796 366.816 641.267C365.802 640.59 364.664 639.828 364.04 638.882C362.883 637.17 361.33 636.171 359.598 635.261C359.003 634.974 358.289 634.586 358.053 634.118C357.486 632.843 355.932 633.478 355.308 632.531C354.498 633.159 353.935 632.481 353.396 632.159C352.411 631.541 351.458 631.28 350.323 631.41C349.635 631.53 348.948 631.208 348.234 631.127C347.457 631.071 346.681 631.015 346.144 630.992C345.483 632.064 344.942 632.93 344.375 633.881C344.673 634.178 344.938 634.558 345.059 634.651C346.016 634.61 346.585 634.55 347.241 634.514C347.778 634.537 348.313 634.568 348.85 634.591C349.419 634.678 350.075 634.642 350.521 634.938C351.688 635.612 352.85 636.287 354.193 636.426C354.429 636.453 354.91 636.659 354.939 636.864C355.232 637.903 356.221 637.779 356.879 638.189C358.07 638.923 359.084 639.894 360.186 640.746C360.543 641.014 360.903 641.273 361.26 641.54C361.528 641.779 361.823 641.924 362.035 642.184C362.866 643.1 363.702 644.013 364.506 645.022C365.46 646.316 366.382 647.706 367.779 648.703C367.994 648.822 367.988 649.265 368.167 649.622C368.855 649.796 369.48 649.848 370.05 649.935ZM655.298 4.77694C656.133 4.95039 656.85 5.33017 657.297 6.07212C657.385 6.24775 657.651 6.33412 657.89 6.36728C659.203 6.74052 660.099 7.47689 659.889 8.98931C662.545 8.32066 664.514 10.1446 666.449 12.0649C668.299 11.5751 668.328 11.6336 670.81 12.2395C671.409 12.3852 672.096 12.5596 672.722 12.4647C673.762 12.3085 674.811 12.008 675.857 11.7022C675.741 10.28 676.821 8.99687 676.434 7.78466C674.642 7.9458 673.056 8.3699 671.535 8.1742C669.953 8.00293 668.612 6.82361 666.998 6.45499C666.133 6.223 665.362 5.27759 664.613 4.6871C664.288 4.48364 663.932 4.06948 663.661 4.13265C662.672 4.25654 661.872 3.69842 661.451 3.16988C660.65 2.16593 659.482 1.93323 658.47 1.26169C658.113 0.994369 657.727 0.668502 657.279 0.527248C656.71 0.293337 656.052 0.177474 655.46 0.181309C654.324 0.15932 653.605 1.1144 652.676 1.80121C653.448 2.89345 653.689 4.40561 655.298 4.77694ZM410.51 188.163C410.604 188.042 410.811 188.011 410.959 188.01C411.735 188.066 412.63 188.357 413.261 188.113C414.006 187.811 414.66 188.523 415.409 187.92C415.858 187.621 416.902 188.062 417.676 188.113C419.145 188.195 420.577 188.215 421.65 189.302C421.797 189.448 421.918 189.541 422.095 189.598C424.096 189.852 425.526 191.207 427.049 192.295C428.3 193.146 429.308 194.266 430.654 195.443C430.654 195.443 431.009 195.411 431.371 195.529C432.053 195.853 432.441 195.431 432.743 194.986C433.314 194.179 433.134 192.936 432.42 192.254C432.243 192.05 432.067 191.846 431.882 191.639C431.378 190.932 430.901 190.131 430.249 189.572C429.592 189.016 428.728 188.784 427.92 188.37C426.669 187.665 425.295 187.023 424.465 185.667C423.714 186.117 423.056 186.148 422.132 185.799C421.002 185.334 419.716 185.161 418.461 185.051C417.354 184.941 416.191 185.16 415.06 184.988C413.177 184.675 411.355 184.777 409.71 185.084C409.469 186.092 409.287 187.071 408.989 188.261C409.586 188.254 409.974 189.026 410.51 188.163ZM642.646 231.523C642.798 230.78 642.679 230.1 641.903 229.897C640.528 229.548 639.096 229.234 637.723 229.184C635.751 229.136 633.782 229.239 631.841 229.695C631.032 229.882 630.73 230.327 630.613 230.979C630.404 232.051 631.471 233.435 632.725 233.544C633.472 233.689 634.278 233.657 635.025 233.802C637.203 234.26 639.41 234.777 641.803 235.354C642.072 233.959 642.34 232.71 642.646 231.523Z" fill="white"/>
<rect x="669.001" y="268" width="68" height="203" transform="rotate(-90 669.001 268)" fill="#FEC8FF"/>
<rect x="334.001" y="215" width="156" height="436" fill="#9AEFD9"/>
<path d="M684.185 369.222L684.807 369.245C685.448 369.424 686.116 369.258 686.694 368.83C687.195 368.281 688.198 368.481 688.579 367.763C689.372 368.167 689.88 367.371 690.605 367.418C690.767 367.4 691.005 367.496 691.089 367.364C692.446 366.54 693.954 366.592 695.409 366.435C696.356 366.427 697.285 366.262 698.167 365.89C698.351 365.778 698.612 365.779 698.85 365.876C699.646 366.283 700.336 366.022 701.068 365.823C701.291 365.767 701.598 365.58 701.636 365.637C702.27 366.062 702.838 365.876 703.574 365.673C704.119 365.582 704.741 365.606 705.344 365.727C705.805 365.768 706.285 365.965 706.669 365.891C707.616 365.883 708.577 366.022 709.349 366.523C709.488 366.6 709.765 366.754 709.926 366.736C710.965 366.349 711.769 367.154 712.694 367.239C713.255 367.3 713.754 367.398 714.296 367.557C714.834 367.713 715.375 367.871 715.848 368.067C716.048 368.107 716.266 368.301 716.428 368.283C717.467 367.89 717.907 368.676 718.537 369.097C718.756 369.292 719.072 369.503 719.349 369.656C720.167 369.968 721.046 370.243 721.861 370.552C722.099 370.655 722.276 370.789 722.453 370.923C722.945 371.267 723.357 371.748 724.063 371.639C724.224 371.621 724.443 371.816 724.582 371.892C724.759 372.026 724.897 372.103 725.136 372.199C726.599 372.44 727.721 373.213 728.932 373.85C729.412 374.046 729.85 374.182 730.353 374.284C731.152 374.441 731.993 374.659 732.734 374.857C733.333 374.975 733.826 375.319 734.138 375.78C734.327 376.068 734.603 376.222 734.968 376.247C735.329 376.268 735.66 376.631 735.914 376.879C736.171 377.13 736.348 377.264 736.694 377.134C737.223 376.891 737.458 377.238 737.528 377.598C737.671 378.076 738.002 378.438 738.444 378.577C739.059 378.847 739.525 379.536 740.418 379.318C741.158 380.157 742.574 379.943 743.228 380.921C743.306 381.035 743.444 381.112 743.544 381.131C744.062 381.385 744.6 381.54 745.257 381.87L746.032 381.478C746.489 381.769 746.982 382.113 747.416 382.499C747.986 382.957 748.532 383.517 749.315 383.523C749.376 383.485 749.515 383.562 749.515 383.562C749.919 384.288 750.89 384.185 751.353 384.87C751.622 385.277 752.099 385.47 752.644 385.379C752.993 385.245 753.373 385.422 753.562 385.711C754.089 386.362 754.943 386.728 755.813 386.605C756.397 386.571 756.97 387.033 757.515 386.942C758.163 386.875 758.801 387.05 759.235 387.435L760.851 387.261C761.336 387.851 762.154 388.164 762.925 388.021C764.108 388.105 765.301 387.946 766.46 387.727C766.744 387.635 767.043 387.693 767.308 387.699C767.868 387.76 768.452 387.726 769.023 387.544C769.691 387.378 770.378 387.367 771.022 387.296C771.774 387.245 772.496 387.288 773.183 387.277C773.605 387.261 773.903 387.967 774.408 387.422L775.825 387.852L776.514 386.947L777.793 387.301C778.399 387.172 779.165 386.629 780.103 386.862C780.203 386.882 780.287 386.75 780.39 386.773C780.958 386.588 781.487 386.345 782.062 386.16C782.369 385.973 782.614 385.823 782.882 385.578C783.581 385.716 784.352 385.573 784.892 385.081C785.367 384.63 785.922 384.296 786.517 384.013C786.924 383.845 787.41 383.795 787.871 383.836C788.024 383.421 788.453 383.158 788.937 383.105C789.412 382.9 789.818 382.732 790.209 382.413C790.7 382.113 791.159 381.757 791.65 381.457C791.834 381.345 792.018 381.232 792.24 381.177C793.349 381.15 793.881 380.26 794.601 379.659C795.183 379.228 795.619 378.719 796.198 378.284C796.443 378.134 796.689 377.984 796.911 377.929C797.095 377.817 797.421 377.785 797.566 377.615C798.42 376.689 799.72 376.304 800.397 375.245C800.481 375.113 800.604 375.038 800.726 374.963C801.685 374.704 802.174 373.761 803.129 373.499C803.475 373.368 803.753 372.881 804.082 372.599C804.339 372.2 804.707 371.975 805.229 371.979C805.574 371.849 805.845 371.608 805.975 371.287C806.131 370.868 806.522 370.548 806.983 370.589C807.306 370.554 807.589 370.461 807.838 370.315C807.961 370.24 808.183 370.185 808.21 370.087C808.212 369.193 809.114 369.373 809.582 369.168C810.053 368.966 810.718 369.044 810.839 368.324C810.861 368.23 811.023 368.212 811.084 368.175C812.161 367.845 813.208 367.204 814.417 367.197C815.065 367.13 815.644 366.695 816.343 366.832C816.446 366.855 816.692 366.706 816.776 366.574C817.112 366.045 817.707 365.762 818.355 365.694C818.516 365.677 818.716 365.716 818.739 365.621C819.382 364.906 820.329 364.897 821.178 364.862C822.026 364.833 822.762 364.384 823.51 364.336C824.577 364.248 825.582 363.801 826.668 363.869C828.276 363.94 829.941 363.573 831.577 363.951C832.62 363.561 833.609 364.254 834.602 364.056C834.924 364.02 835.324 364.099 835.601 364.252C836.496 364.679 837.474 364.329 838.457 364.374C839.866 364.406 841.231 363.98 842.515 364.735C842.756 364.835 842.972 365.026 843.21 365.122C843.449 365.218 843.706 365.47 843.829 365.395C844.864 365.005 845.653 365.658 846.326 366.14C847.095 366.638 848.036 366.875 848.984 366.866C849.644 366.947 850.324 367.182 850.851 367.587C851.824 368.128 852.75 368.858 853.784 369.361C854.537 369.714 855.229 370.098 855.986 370.448C856.705 370.741 857.335 371.162 857.908 371.624C858.197 371.932 858.635 372.068 859.099 372.113C859.787 372.095 860.34 372.409 860.748 372.886C861.221 373.328 861.752 373.73 862.332 373.946C863.462 374.472 864.511 375.127 865.477 375.914C865.654 376.048 865.792 376.125 866.031 376.221C866.169 376.298 866.392 376.242 866.43 376.3C866.931 377.049 867.787 377.418 868.755 377.311C868.919 377.297 869.074 377.525 869.189 377.697C869.305 377.868 869.598 378.173 869.859 378.175C870.684 378.241 871.223 379.047 872.094 378.918C872.359 378.923 872.636 379.077 872.786 379.308C873.268 380.149 874.282 380.497 874.883 381.266C874.96 381.38 875.099 381.457 875.198 381.476C876.369 381.412 876.858 382.006 877.064 383.091L878.123 382.852C879.407 383.607 880.449 384.508 881.928 384.901C882.331 384.983 882.639 385.44 882.967 385.806C883.185 386 883.362 386.134 883.578 386.325C884.093 386.575 884.612 386.828 885.15 386.984C886.091 387.221 886.925 387.685 887.609 388.322C887.748 388.399 887.947 388.438 888.209 388.44C888.531 388.404 888.918 388.335 889.302 388.261C889.51 388.699 889.796 389.25 890.483 389.239C890.583 389.259 890.583 389.259 890.683 389.279C891.737 390.335 893.318 390.1 894.636 390.51C894.877 390.61 895.138 390.612 895.322 390.5C895.997 390.088 896.677 390.323 897.337 390.404C897.702 390.429 898.063 390.45 898.385 390.415C899.233 390.386 899.994 390.486 900.796 390.647C900.796 390.647 900.835 390.704 900.896 390.666C901.541 390.595 902.193 390.524 902.799 390.396C902.861 390.358 902.922 390.321 903.022 390.341C904.478 390.828 905.876 389.818 907.304 389.999C907.443 390.076 907.604 390.058 907.769 390.044C908.152 389.97 908.559 389.803 908.904 389.672C908.965 389.635 909.127 389.617 909.188 389.58C909.677 388.882 910.361 388.868 911.086 388.915C911.47 388.842 911.815 388.711 912.121 388.524C913.149 387.982 913.953 387.249 915.018 386.764C915.67 386.446 916.438 386.3 917.179 386.498C917.742 385.912 918.24 385.366 918.802 384.786C918.863 384.748 918.951 384.613 919.051 384.633C920.214 384.815 920.872 383.607 921.962 383.672C922.062 383.691 922.184 383.616 922.246 383.579C923.272 382.79 924.484 382.136 925.784 381.751C926.029 381.601 926.278 381.448 926.462 381.335C926.646 381.223 926.853 381.016 926.953 381.035C928.001 381.046 928.586 380.365 929.129 379.63C929.275 379.46 929.559 379.368 929.785 379.316C930.172 379.24 930.533 379.261 930.894 379.283C931.231 378.754 931.77 378.269 932.403 378.043C932.994 377.763 933.526 377.524 934.04 377.129C934.68 376.657 935.335 376.343 936.064 376.14C936.248 376.027 936.397 375.855 936.481 375.723C936.604 375.648 936.65 375.458 936.749 375.478C937.443 375.221 938.134 374.961 938.831 374.701C939.322 374.401 939.89 374.215 940.419 373.973C940.729 373.789 941.09 373.811 941.389 373.869C941.931 374.028 942.564 373.802 942.839 373.311C943.03 372.953 943.352 372.917 943.752 372.996C944.416 373.08 945.099 373.065 945.79 373.052C946.274 372.998 946.822 372.911 947.306 372.857C948.201 373.284 948.201 373.284 949.568 371.964C949.745 372.098 950.025 372.255 950.264 372.351C950.54 372.505 950.913 372.681 951.105 372.569C952.04 372.159 952.813 372.66 953.612 372.817C953.915 372.88 954.276 372.901 954.637 372.923C955.063 372.91 955.553 372.611 955.877 373.219C955.993 373.391 957.67 373.178 957.919 373.032C958.164 372.882 958.448 372.789 958.709 372.791C959.17 372.832 959.573 372.915 960.011 373.05C961.067 373.459 962.133 372.974 963.132 373.171C963.496 373.196 963.796 373.254 964.095 373.313C964.914 373.626 965.858 373.613 966.543 374.25C966.643 374.27 966.743 374.289 966.843 374.309C967.701 374.031 968.309 374.554 968.924 374.823C969.162 374.92 969.458 375.228 969.62 375.211C970.809 375.048 971.675 375.816 972.716 376.073C973.218 376.175 973.756 376.33 974.172 376.56C974.652 376.757 975.079 377.142 975.536 377.433C976.305 377.931 977.162 378.3 978.042 378.575C979.205 378.757 979.983 379.66 981.12 379.933C981.761 380.111 982.25 380.706 982.842 381.07C983.081 381.166 983.322 381.266 983.561 381.363C983.66 381.382 983.883 381.327 983.96 381.441C984.326 381.864 984.638 382.324 985.39 382.026C985.455 381.986 985.589 382.066 985.666 382.18C986.194 382.831 986.928 383.276 987.75 383.338C988.091 383.458 988.345 383.706 988.5 383.934C988.862 384.607 989.493 385.028 990.295 385.189C991.09 385.596 991.798 386.131 992.383 386.748C992.576 387.034 992.853 387.187 993.172 387.401C993.648 387.594 994.041 387.919 994.188 388.4C994.319 388.723 994.857 388.879 995.214 389.15C996.164 389.785 997.294 390.312 997.765 391.395C997.919 391.623 998.422 391.725 998.876 392.012C999.093 392.854 999.862 393.352 1000.88 393.704C1001.32 393.843 1001.71 394.171 1001.94 394.514C1002.31 394.937 1002.71 395.262 1003.23 395.515C1003.92 395.899 1004.46 396.459 1004.77 397.162C1004.78 397.314 1004.9 397.485 1004.96 397.447C1005.92 397.59 1006 398.352 1006.24 399.096C1006.99 399.044 1007.44 399.582 1007.99 399.892C1008.13 399.972 1008.2 400.086 1008.24 400.143C1008.34 401.054 1009.13 401.46 1009.59 402.149C1009.92 402.761 1010.49 403.22 1011.14 403.553C1011.56 403.783 1011.79 404.13 1011.96 404.51C1012.11 404.984 1012.3 405.273 1012.88 405.243C1013.47 405.206 1014 405.614 1014.03 406.164C1014.09 406.771 1014.56 407.216 1015.1 407.372C1015.37 407.525 1015.59 407.716 1015.69 407.986C1015.96 408.385 1016.29 408.748 1016.68 409.079C1016.86 409.213 1017.07 409.404 1017.13 409.613C1017.37 410.357 1017.83 411.045 1018.5 411.527C1018.99 411.872 1019.34 412.389 1019.4 412.999C1019.47 413.36 1020.03 413.67 1020.14 414.088C1020.63 415.083 1021.25 416 1021.93 416.88C1022.35 417.512 1022.77 418.143 1023.26 418.737C1023.34 418.852 1023.54 418.891 1023.68 418.968C1023.86 419.102 1024.07 419.293 1024.16 419.565C1024.23 419.926 1024.49 420.174 1024.8 420.384C1025.06 420.636 1025.19 420.959 1025.16 421.303C1025.11 421.738 1025.25 422.213 1025.53 422.616C1026.01 423.21 1025.49 423.851 1025.51 424.404C1025.46 424.593 1025.46 424.839 1025.41 425.028C1025.62 426.116 1025.89 427.16 1026.1 428.249L1026.33 429.488C1026.38 429.697 1026.4 429.849 1026.39 430.095C1026.29 431.367 1026.33 432.719 1026.49 433.993C1026.53 434.05 1026.51 434.145 1026.45 434.182C1026.1 435.854 1026.55 437.433 1026.62 439.088C1026.64 439.641 1026.91 440.291 1026.55 440.917C1026.52 441.011 1026.58 441.22 1026.66 441.334C1026.73 441.449 1026.89 441.677 1026.86 441.772C1026.59 442.262 1026.99 442.742 1026.87 443.067C1026.49 444.185 1027.33 445.293 1026.85 446.392C1026.8 446.581 1027.02 446.772 1027.07 446.981C1027.19 447.156 1027.28 447.422 1027.33 447.63C1027.25 448.41 1027.27 449.209 1027.35 449.968C1027.34 450.615 1027.45 451.282 1027.61 451.912C1027.82 452.349 1027.68 452.917 1027.67 453.416C1027.65 453.908 1027.85 454.592 1027.97 455.164C1028.14 456.442 1028.41 457.735 1028.51 459.047C1028.58 459.808 1028.56 460.551 1028.64 461.312C1028.71 461.673 1028.68 462.014 1028.48 462.375C1028.46 462.47 1028.38 462.602 1028.42 462.659C1028.93 463.803 1028.47 465.054 1028.69 466.293C1028.88 467.226 1028.1 467.865 1027.72 468.586C1027.69 468.68 1027.49 468.641 1027.21 468.73C1027.08 466.869 1025.93 465.544 1025.09 464.034C1023.91 461.765 1022.15 459.923 1020.52 458.007C1020.21 457.547 1019.9 457.086 1019.65 456.592C1019.44 456.155 1019.15 455.843 1018.82 455.481C1017.78 454.579 1016.72 453.769 1015.73 452.831C1013.99 451.141 1012.25 449.451 1010.57 447.724C1009.88 447.094 1009.32 446.382 1008.88 445.602C1008.46 444.967 1007.91 444.411 1007.28 443.989C1003.6 440.969 999.673 438.101 995.682 435.52C994.636 434.862 993.648 434.17 992.598 433.515C991.749 432.899 990.735 432.544 989.671 432.381C988.733 432.148 987.815 431.816 987.043 431.314C984.998 430.213 983.041 428.976 980.877 427.954C977.361 426.206 973.696 424.879 969.897 423.875C968.557 423.559 967.11 423.47 965.747 423.249C963.884 422.929 962.079 422.568 960.155 422.286C957.529 421.863 954.93 421.746 952.305 421.967C951.377 422.131 950.429 422.14 949.5 422.057C948.053 421.968 946.637 422.182 945.253 422.699C942.552 423.457 939.948 424.231 937.283 425.042C936.937 425.172 936.615 425.208 936.254 425.186C935.59 425.102 934.984 425.231 934.451 425.477C933.489 425.978 932.426 426.466 931.503 427.025C929.924 427.904 928.179 428.4 926.484 429.108C925.387 429.536 924.36 430.078 923.398 430.579C920.65 432.173 917.732 433.381 914.834 434.743C911.767 436.123 908.572 437.177 905.323 438.022C903.172 438.686 901.042 439.008 898.812 438.913C897.464 438.844 896.094 438.869 894.685 438.836C892.709 438.743 890.685 438.441 888.787 437.814C886.533 437.163 884.216 436.556 881.958 435.908C880.64 435.498 879.445 435.012 878.212 434.469C876.917 433.957 875.707 433.32 874.435 432.721C874.096 432.605 873.781 432.394 873.523 432.142C872.63 431.068 871.465 430.242 870.174 429.734C869.179 429.287 868.184 428.841 867.153 428.341C866.596 428.031 866.065 427.629 865.512 427.315C865.374 427.239 865.296 427.124 865.197 427.105C862.002 425.329 858.851 423.607 855.638 421.922C854.842 421.515 854.027 421.207 853.186 420.989C850.751 420.207 848.219 419.402 845.761 418.715C842.523 417.772 839.205 416.965 836.078 415.793C835.839 415.696 835.54 415.638 835.237 415.575C832.487 415.227 829.734 414.882 827.024 414.59C824.19 414.374 821.343 414.65 818.562 415.29C817.223 415.625 815.923 416.011 814.584 416.339C814.297 416.435 814.074 416.49 813.81 416.485C813.172 416.31 812.465 416.418 811.91 416.752C809.118 417.888 806.493 419.401 804.161 421.225C802.122 422.707 800.107 424.095 798.142 425.695C795.913 427.536 793.426 429.132 790.85 430.459C789.336 431.297 787.602 431.948 786.008 432.675C784.417 433.4 782.86 434.184 781.227 434.855C780.514 435.21 779.662 435.488 778.849 435.577C774.72 436.147 770.58 436.562 766.516 437.098C765.929 437.129 765.33 437.011 764.873 436.72C763.739 436.197 762.544 435.711 761.304 435.415C758.965 434.903 756.745 434.312 754.513 433.566C751.601 432.591 748.617 431.897 745.591 431.395C744.15 431.059 742.672 430.666 741.274 430.138C741.174 430.118 741.035 430.042 740.897 429.965C740.104 428.911 738.847 428.462 737.691 428.034C732.493 426.105 727.23 424.209 722.027 422.283C720.633 421.759 719.154 421.366 717.598 420.852L717.973 420.381C718.405 419.471 718.158 418.977 717.278 418.702C716.74 418.547 716.302 418.411 715.738 418.347C715.039 418.209 714.298 418.011 713.595 417.87C713.096 417.772 712.596 417.674 712.43 417.044C712.287 416.566 711.81 416.373 711.246 416.309C709.921 416.144 708.535 416.018 707.211 415.853C705.525 415.667 703.836 415.485 702.085 415.333C700.538 415.224 698.991 415.115 697.482 415.063C696.335 415.032 695.226 415.059 694.081 415.032C693.452 415.009 692.807 415.08 692.252 415.413C691.907 415.544 691.561 415.674 691.139 415.69C688.111 415.836 685.084 416.625 682.36 418.118C678.534 420.042 674.773 421.926 671.025 423.964C669.262 424.956 667.514 426.099 665.947 427.38C663.143 429.406 660.419 431.55 657.7 433.691C656.213 434.836 654.808 436.098 653.421 437.263C650.775 439.521 648.151 441.685 645.504 443.943C644.513 444.785 643.559 445.691 642.644 446.654C641.351 448.085 639.945 449.348 638.436 450.587C637.655 451.226 636.904 451.921 636.257 452.64C635.966 452.979 635.676 453.318 635.623 453.754C635.467 454.173 635.176 454.512 634.769 454.679L634.226 453.876C634.298 453.589 634.328 453.248 634.297 452.945C634.115 452.163 633.717 451.438 633.987 450.546C634.14 450.13 633.69 449.593 633.742 449.157C633.86 448.681 633.551 448.224 633.049 448.123C632.949 448.103 632.949 448.103 632.849 448.083C632.856 447.837 632.94 447.705 632.924 447.553C633.065 446.983 633.462 446.417 633.319 445.939C633.191 445.366 633.128 444.76 633.069 444.15C632.983 443.638 633.017 443.047 633.096 442.514C633.117 441.775 633.403 441.035 633.224 440.257C633.023 439.567 633.083 438.885 633.246 438.22C633.512 437.331 632.835 436.448 633.301 435.599C633.362 435.561 633.185 435.427 633.212 435.33C633.235 435.235 633.142 434.969 633.226 434.837C633.585 434.214 633.3 433.656 633.175 433.087C632.785 432.115 632.71 431.106 632.903 430.1C632.994 429.722 632.924 429.362 632.796 429.035C632.562 428.689 632.614 428.254 632.805 427.895C632.961 427.476 632.953 427.078 632.944 426.68C632.928 426.529 632.628 426.47 632.487 426.389C632.857 425.517 632.989 424.549 632.703 423.997C632.391 423.537 632.432 422.946 632.845 422.532C631.864 421.594 631.964 421.613 632.241 420.475C632.466 419.773 632.548 418.996 632.473 418.235C632.314 417.359 632.001 416.501 632.632 415.63C632.8 415.366 632.768 415.063 632.576 414.777C632.087 414.183 632.35 413.537 632.187 412.911C632.14 412.449 632.216 411.919 632.268 411.484C632.423 410.421 632.555 409.452 632.705 408.392C632.725 408.294 632.816 408.162 632.939 408.087C633.789 407.165 634.819 406.373 636.004 405.817C636.598 405.533 637.215 405.162 637.651 404.654C638.091 404.142 638.605 403.748 639.122 403.35C639.593 403.149 639.846 402.752 639.898 402.317C640.783 401.695 641.603 401.113 642.469 400.589C642.531 400.551 642.615 400.419 642.638 400.325C642.89 399.929 643.219 399.647 643.653 399.381C644.124 399.18 644.514 398.86 644.828 398.427C645.084 398.027 645.398 397.594 645.827 397.332C646.445 396.954 647.023 396.526 647.559 396.037C647.976 395.62 648.544 395.434 648.803 394.792C648.887 394.66 649.24 394.53 649.562 394.494C650.184 394.517 650.659 394.066 650.735 393.536C650.775 392.946 651.173 392.38 651.844 392.218C652.654 392.125 653.378 391.528 653.56 390.764C654.724 390.947 655.969 390.352 656.524 389.368C656.63 389.141 656.876 388.991 657.198 388.956C657.785 388.925 658.241 388.565 658.416 388.055C658.592 387.545 658.963 387.317 659.582 387.59C659.682 387.61 659.843 387.592 660.004 387.574C660.171 386.666 660.917 385.967 661.834 385.654C662.402 385.469 662.996 385.186 663.41 384.772C663.988 384.343 664.466 383.889 664.903 383.38C665.3 382.815 666.303 383.015 666.312 382.121C666.273 382.064 666.618 381.934 666.78 381.916C666.941 381.898 667.325 381.825 667.547 381.77L667.879 380.84C669.226 380.91 670.083 379.988 671.064 379.389C671.643 378.954 672.221 378.525 672.658 378.017C673.366 377.261 674.274 376.544 675.236 376.042C675.988 375.745 676.731 375.295 677.428 374.789C678.168 374.336 678.869 373.833 679.393 373.189C679.936 372.454 681.084 372.484 681.316 371.535L681.377 371.498C682.115 371.692 682.558 370.938 683.283 370.984C684.009 371.024 684.517 370.235 684.178 369.468L684.185 369.222Z" fill="#4264FB"/>
<path d="M97.0767 431.23C98.7976 428.438 102.459 427.547 105.22 429.248C107.976 430.948 108.828 434.622 107.107 437.414C105.386 440.205 101.72 441.094 98.9642 439.395C96.2037 437.693 95.3236 434.073 97.0767 431.23ZM72.5515 471.01C74.2724 468.218 77.9339 467.327 80.6944 469.028C83.4506 470.728 84.3028 474.402 82.5819 477.194C80.861 479.985 77.1952 480.874 74.4389 479.175C71.6784 477.473 70.8305 473.801 72.5515 471.01ZM48.0558 510.742C49.7767 507.95 53.4382 507.059 56.1987 508.761C58.9549 510.46 59.8071 514.134 58.0862 516.926C56.3653 519.717 52.6995 520.606 49.9432 518.907C47.1827 517.205 46.3348 513.533 48.0558 510.742ZM121.57 391.502C123.291 388.711 126.952 387.819 129.713 389.521C132.469 391.22 133.321 394.894 131.6 397.686C129.879 400.477 126.213 401.366 123.457 399.667C120.697 397.965 119.849 394.293 121.57 391.502ZM143.418 459.8C145.139 457.009 148.805 456.12 151.561 457.819C154.322 459.521 155.174 463.195 153.453 465.987C151.732 468.778 148.066 469.667 145.306 467.965C142.549 466.266 141.665 462.644 143.418 459.8ZM118.893 499.58C120.614 496.789 124.28 495.9 127.036 497.599C129.796 499.301 130.649 502.975 128.928 505.767C127.207 508.558 123.541 509.447 120.78 507.745C118.024 506.046 117.172 502.371 118.893 499.58ZM94.3972 539.312C96.1181 536.521 99.7839 535.632 102.54 537.331C105.301 539.033 106.153 542.708 104.432 545.499C102.711 548.29 99.0451 549.179 96.2846 547.477C93.5284 545.778 92.6762 542.104 94.3972 539.312ZM167.911 420.072C169.632 417.281 173.298 416.392 176.054 418.091C178.815 419.793 179.667 423.468 177.946 426.259C176.225 429.05 172.559 429.939 169.799 428.238C167.042 426.538 166.19 422.864 167.911 420.072ZM50.7825 402.688C52.5034 399.897 56.1649 399.005 58.9254 400.707C61.6816 402.406 62.5338 406.081 60.8129 408.872C59.092 411.664 55.4262 412.553 52.6699 410.853C49.9094 409.152 49.0293 405.532 50.7825 402.688ZM26.2572 442.468C27.9782 439.677 31.6397 438.785 34.4002 440.487C37.1564 442.186 38.0086 445.861 36.2876 448.652C34.5667 451.444 30.9009 452.333 28.1447 450.634C25.3842 448.932 24.5363 445.26 26.2572 442.468ZM1.76153 482.2C3.48246 479.409 7.14397 478.517 9.90448 480.219C12.6607 481.919 13.5129 485.593 11.7919 488.384C10.071 491.176 6.40522 492.065 3.649 490.366C0.888491 488.664 0.0406 484.992 1.76153 482.2ZM75.2755 362.96C76.9964 360.169 80.6579 359.277 83.4184 360.979C86.1746 362.679 87.0268 366.353 85.3059 369.144C83.585 371.936 79.9192 372.825 77.1629 371.126C74.4024 369.424 73.5546 365.752 75.2755 362.96ZM189.712 488.341C191.433 485.55 195.099 484.661 197.855 486.36C200.616 488.062 201.468 491.737 199.747 494.528C198.026 497.319 194.36 498.209 191.6 496.507C188.844 494.807 187.959 491.185 189.712 488.341ZM165.187 528.122C166.908 525.33 170.574 524.441 173.33 526.14C176.091 527.842 176.943 531.517 175.222 534.308C173.501 537.099 169.835 537.989 167.075 536.287C164.318 534.587 163.466 530.913 165.187 528.122ZM140.691 567.854C142.412 565.062 146.078 564.173 148.834 565.872C151.595 567.574 152.447 571.249 150.726 574.04C149.005 576.832 145.339 577.721 142.579 576.019C139.823 574.32 138.97 570.645 140.691 567.854ZM214.205 448.614C215.926 445.822 219.592 444.933 222.348 446.632C225.109 448.334 225.961 452.009 224.24 454.8C222.519 457.592 218.853 458.481 216.093 456.779C213.337 455.08 212.484 451.405 214.205 448.614Z" fill="black"/>
</svg>
